<?xml version="1.0" encoding="utf-8"?>
<!-- Generator: Adobe Illustrator 22.0.1, SVG Export Plug-In . SVG Version: 6.00 Build 0)  -->
<svg version="1.1" id="Capa_1" xmlns="http://www.w3.org/2000/svg" xmlns:xlink="http://www.w3.org/1999/xlink" x="0px" y="0px" width='175px' height='96px'
	 viewBox="0 0 175 96" style="enable-background:new 0 0 175 96;" xml:space="preserve">
<style type="text/css">
	.st0{fill:#00945E;}
	.st1{fill:#006098;}
</style>
<symbol  id="Logo" viewBox="-229.7 -72.8 459.5 145.6">
	<path class="st0" d="M-123.4-54.2h-20l-10.1-18.6h-5.6l27.3,49.9h5.9l13.1-49.9h-5.9L-123.4-54.2z M-141.3-50.1h16.8l-5.4,21.3
		L-141.3-50.1z"/>
	<path class="st0" d="M-88-22.8c9.1,0,14.8-4.4,14.5-13.1c-0.4-7.4-5.9-11.8-10.1-14.3l10.8-22.5h-6.3l-9.6,20.5h-11.3l-2.9-20.5
		h-5.6l7,49.9H-88z M-99.5-48h12.3c3.3,1.8,7.6,5.7,7.9,11.3c0.3,6.1-3.4,9.5-10.1,9.5c-3.5,0-5.8-0.2-7.3-0.5L-99.5-48z"/>
	<polygon class="st0" points="-34.5,-27.2 -49.7,-27.2 -56.4,-72.8 -61.9,-72.8 -55.2,-27.2 -70.6,-27.2 -70.1,-22.8 -33.9,-22.8 	
		"/>
	<polygon class="st1" points="-175.5,5 -177.5,-10.5 -229.7,-10.5 -218.1,72.8 -170.2,72.8 -172.3,57.3 -199.6,57.3 -202.2,39.4 
		-175.4,39.4 -177.5,23.9 -204.4,23.9 -207.1,5 	"/>
	<path class="st1" d="M-53,72.8c9.5,0,16.9-2.3,22-6.9c5.2-4.7,7.5-11.2,7-19.7c-0.2-4.7-1.4-8.8-3.4-12.2c-2-3.5-4.6-6.3-7.7-8.6
		c-3.1-2.3-6.7-4-10.8-5.1c-4-1.1-8.2-1.7-12.6-1.7c-1.1,0-2.4,0-4,0.1c-1.6,0.1-2.9,0.2-4,0.2l-4.2-29.4h-20.4l11.5,83.3H-53z
		 M-64.4,34.4c1.1-0.2,2.3-0.3,3.5-0.3c1.2,0,2.3-0.1,3.2-0.1c3.6,0,6.6,1,9,2.9c2.4,1.9,3.8,4.9,4.1,9c0.2,3.3-0.6,6-2.4,8.2
		c-1.8,2.2-4.6,3.3-8.5,3.3c-1.3,0-2.4-0.1-3.3-0.2c-1-0.1-1.8-0.3-2.4-0.5L-64.4,34.4z"/>
	<polygon class="st1" points="29,5 27,-10.5 -25.2,-10.5 -13.6,72.8 34.2,72.8 32.2,57.3 4.9,57.3 2.2,39.4 29.1,39.4 27,23.9 
		0.1,23.9 -2.6,5 	"/>
	<path class="st1" d="M72.3,72.8c4,0,7.7-0.4,11.1-1.3c3.3-0.9,6.2-2.2,8.5-4.1c2.3-1.9,4.1-4.3,5.3-7.3c1.2-3,1.7-6.5,1.7-10.6
		c-0.1-3-0.7-5.6-1.8-8.1c-1.1-2.5-2.4-4.7-4-6.7c-1.6-2-3.2-3.7-4.9-5.2c-1.8-1.4-3.3-2.6-4.6-3.5l16.7-36.5H77.1L65.4,18.1h-10
		l-3.9-28.6H31l11.7,83.3H72.3z M57.5,32.9h13.3c1.1,0.9,2.4,2.4,3.9,4.8c1.5,2.3,2.4,5,2.8,8c0.4,3.8-0.3,6.7-2.1,8.7
		c-1.9,2-4.4,3-7.7,3c-1.6,0-2.9-0.1-4-0.2c-1.1-0.1-2-0.3-2.7-0.6L57.5,32.9z"/>
	<polygon class="st1" points="167.6,57.3 145.6,57.3 136.1,-10.5 115.6,-10.5 125.1,57.3 102.8,57.3 104.9,72.8 169.7,72.8 	"/>
	<path class="st1" d="M203.3,10.9h-27.6l-11-21.4h-19.9l44.1,83.3h20.8l19.9-83.3h-21.6L203.3,10.9z M182.8,25.5h17.1l-5.2,24.1
		L182.8,25.5z"/>
	<polygon class="st0" points="-140,72.8 -163.2,72.8 -142.8,35.1 -130.4,54.7 	"/>
	<polygon class="st0" points="-118.1,-10.5 -95.6,-10.5 -116.9,29.4 -129.3,10.2 	"/>
	<polygon class="st0" points="-115.1,72.8 -128.6,51.3 -140.9,31.7 -181.1,-31.9 -181.1,-63.9 -131.1,13.5 -118.7,32.8 -92.8,72.8 	
		"/>
</symbol>
<use xlink:href="#Logo"  width="459.5" height="145.6" x="-229.7" y="-72.8" transform="matrix(0.3393 0 0 -0.3393 88.0557 48.4683)" style="overflow:visible;"/>
</svg>
